<svg width="444" height="357" viewBox="0 0 444 357" fill="none" xmlns="http://www.w3.org/2000/svg">
<path d="M193.678 437.738C175.735 437.761 158.36 431.424 144.609 419.842H63.9453C77.4054 449.503 100.554 473.647 129.55 488.27C158.546 502.893 191.646 507.114 223.358 500.234C255.071 493.355 283.489 475.787 303.897 450.447C324.306 425.106 335.478 393.516 335.56 360.918V210.613C330.577 206.227 324.773 202.884 318.489 200.779C312.204 198.675 305.565 197.85 298.96 198.355H270.133V360.918C270.133 381.292 262.078 400.831 247.74 415.238C233.402 429.645 213.955 437.738 193.678 437.738Z" fill="#DEDEDE"/>
<path d="M193.678 437.738C175.735 437.761 158.36 431.424 144.609 419.842H63.9453C77.4054 449.503 100.554 473.647 129.55 488.27C158.546 502.893 191.646 507.114 223.358 500.234C255.071 493.355 283.489 475.787 303.897 450.447C324.306 425.106 335.478 393.516 335.56 360.918V210.613C330.577 206.227 324.773 202.884 318.489 200.779C312.204 198.675 305.565 197.85 298.96 198.355H270.133V360.918C270.133 381.292 262.078 400.831 247.74 415.238C233.402 429.645 213.955 437.738 193.678 437.738Z" fill="#DEDEDE"/>
<path d="M193.368 65.7253C211.311 65.6982 228.689 72.0358 242.437 83.6212H323.126C309.666 53.958 286.516 29.8107 257.517 15.1861C228.519 0.561552 195.416 -3.66131 163.701 3.21844C131.985 10.0982 103.564 27.6669 83.1532 53.0094C62.7424 78.3519 51.5687 109.945 51.4863 142.546V292.85C56.4658 297.234 62.265 300.575 68.5449 302.68C74.8247 304.785 81.4591 305.61 88.0602 305.109H116.951V142.546C116.951 122.176 125.003 102.64 139.335 88.2346C153.668 73.8287 173.095 65.7322 193.368 65.7253Z" fill="#DEDEDE"/>
<path d="M193.368 65.7253C211.311 65.6982 228.689 72.0358 242.437 83.6212H323.126C309.666 53.958 286.516 29.8107 257.517 15.1861C228.519 0.561552 195.416 -3.66131 163.701 3.21844C131.985 10.0982 103.564 27.6669 83.1532 53.0094C62.7424 78.3519 51.5687 109.945 51.4863 142.546V292.85C56.4658 297.234 62.265 300.575 68.5449 302.68C74.8247 304.785 81.4591 305.61 88.0602 305.109H116.951V142.546C116.951 122.176 125.003 102.64 139.335 88.2346C153.668 73.8287 173.095 65.7322 193.368 65.7253Z" fill="#DEDEDE"/>
<path d="M378.646 251.577C378.673 269.606 372.365 287.066 360.835 300.881V381.955C390.342 368.422 414.359 345.161 428.903 316.03C443.447 286.899 447.644 253.648 440.799 221.791C433.953 189.934 416.476 161.385 391.266 140.878C366.055 120.371 334.626 109.139 302.191 109.043H152.601C148.237 114.045 144.91 119.872 142.815 126.182C140.72 132.492 139.899 139.159 140.401 145.792V174.795H302.191C322.468 174.795 341.914 182.888 356.252 197.295C370.591 211.702 378.646 231.241 378.646 251.615" fill="#DEDEDE"/>
<path d="M8.41277 251.887C8.38911 233.858 14.6962 216.398 26.2236 202.582V121.508C-3.2986 135.033 -27.3311 158.294 -41.8861 187.43C-56.4412 216.567 -60.6439 249.828 -53.7968 281.695C-46.9498 313.562 -29.4646 342.119 -4.24263 362.628C20.9793 383.136 52.4219 394.363 84.8679 394.446H234.471C238.836 389.442 242.163 383.613 244.258 377.301C246.353 370.988 247.173 364.319 246.671 357.684V328.707H84.8679C64.5907 328.707 45.144 320.613 30.8059 306.207C16.4678 291.8 8.41277 272.261 8.41277 251.887Z" fill="#DEDEDE"/>
</svg>
